<?xml version="1.0" encoding="UTF-8" standalone="no"?>
<!DOCTYPE svg PUBLIC "-//W3C//DTD SVG 1.1//EN" "http://www.w3.org/Graphics/SVG/1.1/DTD/svg11.dtd">
<svg width="100%" height="100%" viewBox="0 0 1920 1080" version="1.1" xmlns="http://www.w3.org/2000/svg" xmlns:xlink="http://www.w3.org/1999/xlink" xml:space="preserve" xmlns:serif="http://www.serif.com/" style="fill-rule:evenodd;clip-rule:evenodd;stroke-linejoin:round;stroke-miterlimit:2;">
    <g id="Layer1" transform="matrix(0.975929,0,0,0.975929,77.5151,4.8019)">
        <g transform="matrix(2.71277e-17,-0.498917,2.09886,1.29695e-16,47.6308,825.628)">
            <path d="M-126.166,663.93C-125.329,664.412 1291.96,724.365 1239.48,703.639C572.5,440.252 1360.89,637.612 1429.69,605.467C1435.63,602.691 1522.33,513.497 1458.18,418.553C1434.54,383.574 1460.75,376.959 1456.36,380.841C1410.49,421.358 1420.61,430.498 1403.38,429.777C1333.73,426.863 1419.02,161.042 1415.73,163.504C1135.47,372.805 351.956,230.03 124.991,183.245C124.718,183.189 124.44,183.134 124.168,183.078C111.42,180.464 66.487,198.086 66.616,197.865" style="fill:url(#_Linear1);"/>
        </g>
        <g transform="matrix(1,0,0,1,306.928,-79.1924)">
            <path d="M372.79,256.46L375.025,260.931L370.555,260.931L372.79,256.46Z" style="fill:white;fill-opacity:0.41;"/>
        </g>
        <g transform="matrix(1,0,0,1,292.699,-114.767)">
            <path d="M372.79,256.46L375.025,260.931L370.555,260.931L372.79,256.46Z" style="fill:white;fill-opacity:0.41;"/>
        </g>
        <g transform="matrix(1,0,0,1,336.404,-91.2198)">
            <path d="M372.79,256.46L375.025,260.931L370.555,260.931L372.79,256.46Z" style="fill:white;fill-opacity:0.41;"/>
        </g>
        <g transform="matrix(1,0,0,1,229.406,-114.15)">
            <path d="M372.79,256.46L375.025,260.931L370.555,260.931L372.79,256.46Z" style="fill:white;fill-opacity:0.41;"/>
        </g>
        <g transform="matrix(1,0,0,1,276.436,-67.9696)">
            <path d="M372.79,256.46L375.025,260.931L370.555,260.931L372.79,256.46Z" style="fill:white;fill-opacity:0.41;"/>
        </g>
        <g transform="matrix(1,0,0,1,91.1852,2.19039)">
            <path d="M372.79,256.46L375.025,260.931L370.555,260.931L372.79,256.46Z" style="fill:white;fill-opacity:0.41;"/>
        </g>
        <g transform="matrix(0.878561,0,0,1.03721,-39.1643,-10.0863)">
            <path d="M449.803,778.035L525.016,788.133C525.016,788.133 778.722,781.057 793.195,773.155C974.509,674.162 870.064,622.09 985.135,742.267C1017.23,775.781 1092.7,712.503 1168.31,712.107C1184.62,712.022 1213.97,674.417 1230.96,675.002C1262.19,676.077 1262.44,729.602 1293.91,733.932C1408.78,749.733 1465.74,797.76 1523.35,801.358C1552.38,803.172 1597.58,810.018 1597.58,810.018L1609.9,815.996L809.182,826.285L449.803,778.035Z" style="fill:rgb(65,78,104);fill-opacity:0.18;"/>
        </g>
        <g transform="matrix(0.715554,0,0,0.715554,507.335,396.474)">
            <path d="M492.263,398.917L757.297,398.917C738.512,399.771 667.645,331.148 611.126,361.973C501.296,421.874 503.507,398.917 503.507,398.917" style="fill:url(#_Linear2);"/>
        </g>
        <g transform="matrix(0.715554,0,0,0.715554,812.888,349.561)">
            <path d="M492.263,398.917L757.297,398.917C738.512,399.771 613.753,367.825 608.556,360.688C572.419,311.053 503.507,398.917 503.507,398.917" style="fill:url(#_Linear3);"/>
        </g>
        <g transform="matrix(0.715554,0,0,0.715554,280.146,413.269)">
            <path d="M492.263,398.917L757.297,398.917C738.512,399.771 613.753,367.825 608.556,360.688C572.419,311.053 503.507,398.917 503.507,398.917" style="fill:url(#_Linear4);"/>
        </g>
        <g transform="matrix(0.715554,0,0,0.715554,433.21,331.429)">
            <path d="M552.298,398.917L757.297,398.917C738.512,399.771 671.321,376.049 666.125,368.912C629.988,319.277 505.974,398.917 505.974,398.917" style="fill:url(#_Linear5);"/>
        </g>
        <g transform="matrix(0.905621,0,0,0.915205,36.9032,105.267)">
            <path d="M227.74,927.76L436.536,718.964C436.536,718.964 778.722,781.057 793.195,773.155C974.509,674.162 870.064,622.09 985.135,742.267C1017.23,775.781 1092.7,712.503 1168.31,712.107C1184.62,712.022 1213.97,674.417 1230.96,675.002C1262.19,676.077 1262.44,729.602 1293.91,733.932C1466.68,757.697 1565.69,773.64 1565.69,773.64L1549.02,899.149L227.74,927.76Z" style="fill:rgb(65,78,104);"/>
        </g>
        <g transform="matrix(0.876292,0,0,0.803549,5.48393,220.027)">
            <path d="M227.74,927.76L436.536,718.964C436.536,718.964 826.452,848.459 994.077,784.799C1000.4,782.397 1006.41,779.719 1012.07,776.749C1020.63,772.259 1030.21,768.244 1040.66,764.665C1220.44,703.153 1660.81,770.585 1660.81,770.585L1645.11,919.651L227.74,927.76Z" style="fill:white;"/>
        </g>
        <g transform="matrix(0.915205,0,0,0.915205,-14.2794,152.799)">
            <path d="M227.74,927.76L438.897,725.438C438.897,725.438 856.44,858.418 1012.07,776.749C1020.63,772.259 1030.21,768.244 1040.66,764.665C1220.44,703.153 1597.82,763.912 1597.82,763.912C1597.82,763.912 1460.38,895.973 1506.63,878.267C1607.17,839.776 227.74,927.76 227.74,927.76Z" style="fill:rgb(44,51,68);"/>
        </g>
        <g transform="matrix(1,0,0,1,243.638,-101.874)">
            <path d="M372.79,256.46L375.025,260.931L370.555,260.931L372.79,256.46Z" style="fill:white;fill-opacity:0.41;"/>
        </g>
        <g transform="matrix(1,0,0,1,222.511,-56.3846)">
            <path d="M372.79,256.46L375.025,260.931L370.555,260.931L372.79,256.46Z" style="fill:white;fill-opacity:0.41;"/>
        </g>
        <g transform="matrix(1,0,0,1,387.22,-125.804)">
            <path d="M372.79,256.46L375.025,260.931L370.555,260.931L372.79,256.46Z" style="fill:white;fill-opacity:0.41;"/>
        </g>
        <g transform="matrix(1,0,0,1,313.704,-52.9352)">
            <path d="M372.79,256.46L375.025,260.931L370.555,260.931L372.79,256.46Z" style="fill:white;fill-opacity:0.41;"/>
        </g>
        <g transform="matrix(1,0,0,1,335.479,-126.235)">
            <path d="M372.79,256.46L375.025,260.931L370.555,260.931L372.79,256.46Z" style="fill:white;fill-opacity:0.41;"/>
        </g>
        <g transform="matrix(1,0,0,1,340.653,-68.4576)">
            <path d="M372.79,256.46L375.025,260.931L370.555,260.931L372.79,256.46Z" style="fill:white;fill-opacity:0.41;"/>
        </g>
        <g transform="matrix(1,0,0,1,396.706,-77.7279)">
            <path d="M372.79,256.46L375.025,260.931L370.555,260.931L372.79,256.46Z" style="fill:white;fill-opacity:0.41;"/>
        </g>
        <g transform="matrix(1,0,0,1,272.743,-35.9038)">
            <path d="M372.79,256.46L375.025,260.931L370.555,260.931L372.79,256.46Z" style="fill:white;fill-opacity:0.41;"/>
        </g>
        <g transform="matrix(1,0,0,1,273.59,-95.0583)">
            <path d="M372.79,256.46L375.025,260.931L370.555,260.931L372.79,256.46Z" style="fill:white;fill-opacity:0.41;"/>
        </g>
        <g transform="matrix(1,0,0,1,376.251,-105.845)">
            <path d="M372.79,256.46L375.025,260.931L370.555,260.931L372.79,256.46Z" style="fill:white;fill-opacity:0.41;"/>
        </g>
        <g transform="matrix(1,0,0,1,352.588,-29.9018)">
            <path d="M372.79,256.46L375.025,260.931L370.555,260.931L372.79,256.46Z" style="fill:white;fill-opacity:0.41;"/>
        </g>
        <g transform="matrix(0.522222,0,0,0.522222,588.582,178.022)">
            <circle cx="830.318" cy="429.605" r="57.825" style="fill:url(#_Linear6);"/>
        </g>
        <g transform="matrix(1,0,0,1,197.877,-103.808)">
            <path d="M372.79,256.46L375.025,260.931L370.555,260.931L372.79,256.46Z" style="fill:white;fill-opacity:0.41;"/>
        </g>
        <g transform="matrix(1,0,0,1,221.731,-97.4563)">
            <path d="M372.79,256.46L375.025,260.931L370.555,260.931L372.79,256.46Z" style="fill:white;fill-opacity:0.41;"/>
        </g>
        <g transform="matrix(1,0,0,1,238.639,-79.9864)">
            <path d="M372.79,256.46L375.025,260.931L370.555,260.931L372.79,256.46Z" style="fill:white;fill-opacity:0.41;"/>
        </g>
        <g transform="matrix(1,0,0,1,265.457,-113.046)">
            <path d="M372.79,256.46L375.025,260.931L370.555,260.931L372.79,256.46Z" style="fill:white;fill-opacity:0.41;"/>
        </g>
        <g transform="matrix(1,0,0,1,320.854,-105.931)">
            <path d="M372.79,256.46L375.025,260.931L370.555,260.931L372.79,256.46Z" style="fill:white;fill-opacity:0.41;"/>
        </g>
        <g transform="matrix(1,0,0,1,175.184,-116.478)">
            <path d="M372.79,256.46L375.025,260.931L370.555,260.931L372.79,256.46Z" style="fill:white;fill-opacity:0.41;"/>
        </g>
        <g transform="matrix(1,0,0,1,152.032,-107.514)">
            <path d="M372.79,256.46L375.025,260.931L370.555,260.931L372.79,256.46Z" style="fill:white;fill-opacity:0.41;"/>
        </g>
        <g transform="matrix(1,0,0,1,205.817,-78.716)">
            <path d="M372.79,256.46L375.025,260.931L370.555,260.931L372.79,256.46Z" style="fill:white;fill-opacity:0.41;"/>
        </g>
        <g transform="matrix(1,0,0,1,139.116,-119.918)">
            <path d="M372.79,256.46L375.025,260.931L370.555,260.931L372.79,256.46Z" style="fill:white;fill-opacity:0.41;"/>
        </g>
        <g transform="matrix(1,0,0,1,91.1187,-126.736)">
            <path d="M372.79,256.46L375.025,260.931L370.555,260.931L372.79,256.46Z" style="fill:white;fill-opacity:0.41;"/>
        </g>
        <g transform="matrix(1,0,0,1,115.611,-116.196)">
            <path d="M372.79,256.46L375.025,260.931L370.555,260.931L372.79,256.46Z" style="fill:white;fill-opacity:0.41;"/>
        </g>
        <g transform="matrix(1,0,0,1,174.478,-88.6683)">
            <path d="M372.79,256.46L375.025,260.931L370.555,260.931L372.79,256.46Z" style="fill:white;fill-opacity:0.41;"/>
        </g>
        <g transform="matrix(1,0,0,1,308.252,-129.219)">
            <path d="M372.79,256.46L375.025,260.931L370.555,260.931L372.79,256.46Z" style="fill:white;fill-opacity:0.41;"/>
        </g>
        <g transform="matrix(1,0,0,1,422.862,-103.279)">
            <path d="M372.79,256.46L375.025,260.931L370.555,260.931L372.79,256.46Z" style="fill:white;fill-opacity:0.41;"/>
        </g>
    </g>
    <g transform="matrix(4.39922,0,0,11.586,-3282.56,-9357.59)">
        <ellipse cx="894.905" cy="1038.26" rx="1115.28" ry="154.424" style="fill:rgb(44,51,68);"/>
    </g>
    <defs>
        <linearGradient id="_Linear1" x1="0" y1="0" x2="1" y2="0" gradientUnits="userSpaceOnUse" gradientTransform="matrix(1401.45,0,0,726.03,45.6363,449.459)"><stop offset="0" style="stop-color:rgb(254,119,95);stop-opacity:1"/><stop offset="0.26" style="stop-color:rgb(231,174,138);stop-opacity:1"/><stop offset="0.6" style="stop-color:rgb(108,122,149);stop-opacity:1"/><stop offset="0.77" style="stop-color:rgb(93,107,136);stop-opacity:1"/><stop offset="1" style="stop-color:rgb(60,75,106);stop-opacity:1"/></linearGradient>
        <linearGradient id="_Linear2" x1="0" y1="0" x2="1" y2="0" gradientUnits="userSpaceOnUse" gradientTransform="matrix(265.034,0,0,46.0662,492.263,375.884)"><stop offset="0" style="stop-color:white;stop-opacity:0"/><stop offset="1" style="stop-color:rgb(200,200,200);stop-opacity:1"/></linearGradient>
        <linearGradient id="_Linear3" x1="0" y1="0" x2="1" y2="0" gradientUnits="userSpaceOnUse" gradientTransform="matrix(265.034,0,0,46.0662,492.263,375.884)"><stop offset="0" style="stop-color:white;stop-opacity:0"/><stop offset="1" style="stop-color:rgb(200,200,200);stop-opacity:1"/></linearGradient>
        <linearGradient id="_Linear4" x1="0" y1="0" x2="1" y2="0" gradientUnits="userSpaceOnUse" gradientTransform="matrix(265.034,0,0,46.0662,492.263,375.884)"><stop offset="0" style="stop-color:white;stop-opacity:0"/><stop offset="1" style="stop-color:rgb(200,200,200);stop-opacity:1"/></linearGradient>
        <linearGradient id="_Linear5" x1="0" y1="0" x2="1" y2="0" gradientUnits="userSpaceOnUse" gradientTransform="matrix(265.034,0,0,46.0662,492.263,375.884)"><stop offset="0" style="stop-color:white;stop-opacity:0"/><stop offset="1" style="stop-color:rgb(200,200,200);stop-opacity:1"/></linearGradient>
        <linearGradient id="_Linear6" x1="0" y1="0" x2="1" y2="0" gradientUnits="userSpaceOnUse" gradientTransform="matrix(115.651,0,0,115.651,772.493,429.605)"><stop offset="0" style="stop-color:white;stop-opacity:0"/><stop offset="0.64" style="stop-color:white;stop-opacity:0.15"/><stop offset="0.84" style="stop-color:white;stop-opacity:0.55"/><stop offset="1" style="stop-color:white;stop-opacity:1"/></linearGradient>
    </defs>
</svg>
